<svg width="35" height="35" viewBox="0 0 35 35" fill="none" xmlns="http://www.w3.org/2000/svg">
<path d="M3.07617 0C1.37997 0 0 1.37997 0 3.07617V8.20312H15.3809L18.7988 0H3.07617ZM5.12695 5.12695C4.56066 5.12695 4.10156 4.66785 4.10156 4.10156C4.10156 3.53527 4.56066 3.07617 5.12695 3.07617C5.69324 3.07617 6.15234 3.53527 6.15234 4.10156C6.15234 4.66785 5.69324 5.12695 5.12695 5.12695ZM9.22852 5.12695C8.66223 5.12695 8.20312 4.66785 8.20312 4.10156C8.20312 3.53527 8.66223 3.07617 9.22852 3.07617C9.7948 3.07617 10.2539 3.53527 10.2539 4.10156C10.2539 4.66785 9.7948 5.12695 9.22852 5.12695ZM13.3301 5.12695C12.7638 5.12695 12.3047 4.66785 12.3047 4.10156C12.3047 3.53527 12.7638 3.07617 13.3301 3.07617C13.8964 3.07617 14.3555 3.53527 14.3555 4.10156C14.3555 4.66785 13.8964 5.12695 13.3301 5.12695Z" fill="white"/>
<path d="M17.498 24.3359C18.4419 24.3359 19.207 23.5708 19.207 22.627C19.207 21.6831 18.4419 20.918 17.498 20.918C16.5542 20.918 15.7891 21.6831 15.7891 22.627C15.7891 23.5708 16.5542 24.3359 17.498 24.3359Z" fill="white"/>
<path d="M23.6557 20.256L24.2272 19.9261L23.2018 18.1501L22.6261 18.4824C22.2382 18.7063 21.7501 18.6527 21.4202 18.3499C20.7795 17.7622 20.0467 17.336 19.2419 17.0832C18.8146 16.949 18.5238 16.5529 18.5238 16.1049V15.4492H16.473V16.105C16.473 16.5529 16.1823 16.949 15.7549 17.0833C14.9501 17.3361 14.2172 17.7623 13.5766 18.35C13.2467 18.6527 12.7587 18.7063 12.3708 18.4825L11.7951 18.1502L10.7697 19.9261L11.3412 20.2561C11.7286 20.4798 11.9264 20.929 11.8296 21.3658C11.7354 21.7903 11.6878 22.2146 11.6878 22.627C11.6878 23.0393 11.7354 23.4636 11.8294 23.8881C11.9262 24.325 11.7285 24.7741 11.341 24.9978L10.7695 25.3278L11.7949 27.1037L12.3706 26.7714C12.7584 26.5475 13.2466 26.6012 13.5766 26.9039C14.2172 27.4916 14.95 27.9178 15.7548 28.1706C16.1822 28.3049 16.4729 28.701 16.4729 29.1489V29.8047H18.5237V29.1489C18.5237 28.701 18.8144 28.3049 19.2417 28.1706C20.0465 27.9178 20.7795 27.4915 21.42 26.9039C21.75 26.6011 22.2381 26.5475 22.6259 26.7714L23.2016 27.1037L24.227 25.3278L23.6555 24.9978C23.2681 24.7741 23.0703 24.3249 23.1671 23.8881C23.2612 23.4636 23.3089 23.0393 23.3089 22.627C23.3089 22.2146 23.2612 21.7903 23.1673 21.3658C23.0705 20.9289 23.2682 20.4798 23.6557 20.256ZM17.4983 26.3867C15.4252 26.3867 13.7386 24.7001 13.7386 22.627C13.7386 20.5538 15.4252 18.8672 17.4983 18.8672C19.5715 18.8672 21.2581 20.5538 21.2581 22.627C21.2581 24.7001 19.5715 26.3867 17.4983 26.3867Z" fill="white"/>
<path d="M31.9238 0H21.0205L17.011 9.62295C16.8517 10.0051 16.4784 10.2539 16.0645 10.2539H0V31.9238C0 33.62 1.37997 35 3.07617 35H31.9238C33.62 35 35 33.62 35 31.9238V3.07617C35 1.37997 33.62 0 31.9238 0ZM5.12695 15.3809C4.56066 15.3809 4.10156 14.9218 4.10156 14.3555C4.10156 13.7892 4.56066 13.3301 5.12695 13.3301H7.86133C8.42762 13.3301 8.88672 13.7892 8.88672 14.3555C8.88672 14.9218 8.42762 15.3809 7.86133 15.3809H5.12695ZM25.3613 22.627C25.3613 22.9414 25.3412 23.2597 25.3014 23.5791L26.1422 24.0646C26.6326 24.3478 26.8006 24.9748 26.5175 25.4652L24.4667 29.0173C24.1835 29.5076 23.5564 29.6758 23.066 29.3925L22.2216 28.905C21.7096 29.2933 21.1595 29.6131 20.5761 29.8621V30.8301C20.5761 31.3964 20.117 31.8555 19.5507 31.8555H15.4492C14.8829 31.8555 14.4238 31.3964 14.4238 30.8301V29.8621C13.8404 29.6131 13.2902 29.2933 12.7783 28.905L11.9338 29.3925C11.4434 29.676 10.8163 29.5077 10.5332 29.0173L8.48237 25.4652C8.19923 24.9748 8.36726 24.3477 8.85767 24.0646L9.69849 23.5791C9.65877 23.2597 9.63867 22.9414 9.63867 22.627C9.63867 22.3125 9.65877 21.9942 9.69862 21.6748L8.8578 21.1894C8.36739 20.9061 8.19936 20.2791 8.48251 19.7887L10.5333 16.2367C10.8164 15.7462 11.4435 15.5781 11.934 15.8613L12.7784 16.3488C13.2904 15.9606 13.8405 15.6407 14.4239 15.3918V14.4238C14.4239 13.8575 14.883 13.3984 15.4493 13.3984H19.5508C20.1171 13.3984 20.5762 13.8575 20.5762 14.4238V15.3918C21.1596 15.6407 21.7097 15.9606 22.2217 16.3488L23.0662 15.8613C23.5566 15.5782 24.1837 15.7462 24.4668 16.2367L26.5176 19.7887C26.8008 20.2791 26.6327 20.9062 26.1423 21.1894L25.3015 21.6748C25.3412 21.9942 25.3613 22.3125 25.3613 22.627Z" fill="white"/>
</svg>
