<svg width="35" height="35" viewBox="0 0 35 35" fill="none" xmlns="http://www.w3.org/2000/svg">
<path d="M33.9745 27.0702H33.1203C32.987 26.4154 32.7292 25.8063 32.3731 25.2684C32.3731 25.2683 32.373 25.2682 32.3729 25.2682L32.9779 24.664C33.3758 24.266 33.3758 23.6111 32.9779 23.2134C32.5802 22.816 31.9259 22.8159 31.528 23.2134L30.923 23.8184C30.385 23.4623 29.776 23.2046 29.1212 23.0714C29.1211 23.0714 29.121 23.0714 29.121 23.0714V22.2168C29.121 21.6508 28.6616 21.1914 28.0956 21.1914C27.5296 21.1914 27.0702 21.6508 27.0702 22.2168V23.0713C26.4154 23.2046 25.8064 23.4623 25.2684 23.8184L24.6632 23.2133C24.2653 22.8158 23.611 22.8158 23.2133 23.2133C22.8155 23.611 22.8154 24.2659 23.2133 24.6639L23.8185 25.2683C23.4624 25.8063 23.2047 26.4153 23.0714 27.0701H22.2168C21.6543 27.0701 21.1914 27.533 21.1914 28.0955C21.1914 28.658 21.6543 29.1209 22.2168 29.1209H23.0714C23.2047 29.7757 23.4624 30.3849 23.8185 30.9228L23.2135 31.5271C22.8155 31.9251 22.8156 32.58 23.2135 32.9777C23.6111 33.3752 24.2655 33.3752 24.6634 32.9777L25.2684 32.3727C25.2684 32.3727 25.2684 32.3728 25.2685 32.3728C25.8064 32.7289 26.4154 32.9866 27.0703 33.1199V33.9743C27.0703 34.5404 27.5297 34.9997 28.0957 34.9997C28.6617 34.9997 29.1211 34.5404 29.1211 33.9743V33.1201H29.1212C29.7761 32.9868 30.3851 32.7291 30.9231 32.373L31.528 32.9779C31.9259 33.3754 32.5802 33.3753 32.9779 32.9779C33.3758 32.5801 33.3758 31.9253 32.9779 31.5273L32.373 30.9231C32.373 30.9231 32.373 30.923 32.3731 30.923C32.7292 30.3851 32.987 29.776 33.1203 29.1211V29.121H33.9745C34.5371 29.121 34.9999 28.6582 34.9999 28.0956C34.9999 27.5331 34.537 27.0702 33.9745 27.0702ZM28.0958 29.1211C27.5291 29.1211 27.0705 28.6617 27.0705 28.0957C27.0705 27.529 27.5291 27.0703 28.0958 27.0703C28.6619 27.0703 29.1212 27.529 29.1212 28.0957C29.1212 28.6617 28.6619 29.1211 28.0958 29.1211Z" fill="white"/>
<path d="M2.52202 10.3294C2.9198 10.7271 3.57434 10.7271 3.97212 10.3294C4.36991 9.93161 4.36991 9.277 3.97212 8.87929L2.47553 7.38263L3.97212 5.88597C4.36991 5.48825 4.36991 4.83364 3.97212 4.43586C3.57441 4.03814 2.9198 4.03814 2.52202 4.43586L0.300337 6.65754C-0.100112 7.05799 -0.100112 7.7072 0.300337 8.10765L2.52202 10.3294Z" fill="white"/>
<path d="M13.3165 7.38253L11.8199 8.87919C11.4222 9.27691 11.4222 9.93152 11.8199 10.3293C12.2177 10.727 12.8722 10.727 13.27 10.3293L15.4917 8.10762C15.8921 7.70717 15.8921 7.05796 15.4917 6.65751L13.27 4.43583C12.8696 4.03539 12.2203 4.03539 11.8199 4.43583C11.4194 4.83628 11.4194 5.48549 11.8199 5.88594L13.3165 7.38253Z" fill="white"/>
<path d="M7.00474 12.1534C7.55763 12.2568 8.09774 11.8869 8.2011 11.3339L9.60834 3.80817C9.71177 3.25521 9.34181 2.71517 8.78892 2.61181C8.23603 2.50845 7.69592 2.87834 7.59256 3.4313L6.18532 10.9571C6.08189 11.51 6.45185 12.0501 7.00474 12.1534Z" fill="white"/>
<path d="M31.7153 13.8605C32.0065 13.7825 32.2492 13.5809 32.3777 13.3081L34.9015 7.97814C35.0868 7.58576 35.0061 7.11887 34.6992 6.81262L33.7285 5.84123C33.3272 5.44064 32.6771 5.44064 32.2758 5.84123L28.8039 9.3132L25.9909 9.009L25.686 6.19533L29.158 2.72336C29.5592 2.32277 29.5592 1.67267 29.158 1.2714L28.188 0.300702C27.881 -0.00623202 27.4141 -0.0868961 27.0217 0.0990414L21.6918 2.62219C21.419 2.7507 21.2173 2.99338 21.1394 3.28459L19.2636 10.2983L10.2984 19.2636L3.28477 21.1394C2.99356 21.2166 2.75088 21.419 2.62237 21.6917L0.0985386 27.0217C-0.0867154 27.4141 -0.00605127 27.8803 0.300882 28.1872L1.27295 29.1593C1.67286 29.5599 2.32227 29.5599 2.72285 29.1593L6.19619 25.686L9.00918 25.9908L9.31407 28.8038L5.84209 32.2758C5.44082 32.6771 5.44082 33.3272 5.84209 33.7284L6.8128 34.6991C7.11973 35.0061 7.58594 35.0867 7.97832 34.9015L13.3083 32.3777C13.5811 32.2491 13.7827 32.0065 13.8606 31.7153L15.7364 24.7016L24.7017 15.7362L31.7153 13.8605Z" fill="white"/>
</svg>
