<svg width="35" height="35" viewBox="0 0 35 35" fill="none" xmlns="http://www.w3.org/2000/svg">
<g clip-path="url(#clip0_443_10395)">
<path d="M13.098 16.775L13.3984 17.0755V12.373H11.3477V17.0754L11.6481 16.775C12.0486 16.3745 12.6975 16.3745 13.098 16.775Z" fill="white"/>
<path d="M4.10156 13.3984V24.7461H20.5762V13.3984C20.5762 12.8317 20.1175 12.373 19.5508 12.373H15.4492V19.5508C15.4492 19.9653 15.1999 20.3399 14.8163 20.498C14.4385 20.6557 13.9948 20.5717 13.6988 20.2757L12.373 18.95L11.0472 20.2758C10.7528 20.5692 10.3122 20.6593 9.92968 20.4981C9.54618 20.3399 9.29688 19.9653 9.29688 19.5508V12.373H5.12695C4.56019 12.373 4.10156 12.8317 4.10156 13.3984Z" fill="white"/>
<path d="M30.8984 26.7969H4.10156C1.83634 26.7969 0 28.6331 0 30.8984C0 33.1637 1.83634 35 4.10156 35H30.8984C33.1637 35 35 33.1637 35 30.8984C35 28.6331 33.1637 26.7969 30.8984 26.7969ZM5.12695 31.9238C4.56066 31.9238 4.10156 31.4647 4.10156 30.8984C4.10156 30.332 4.56066 29.873 5.12695 29.873C5.69324 29.873 6.15234 30.332 6.15234 30.8984C6.15234 31.4647 5.69324 31.9238 5.12695 31.9238ZM23.6523 31.9238H11.3477C10.7809 31.9238 10.3223 31.4652 10.3223 30.8984C10.3223 30.3317 10.7809 29.873 11.3477 29.873H23.6523C24.2191 29.873 24.6777 30.3317 24.6777 30.8984C24.6777 31.4652 24.2191 31.9238 23.6523 31.9238ZM29.873 31.9238C29.3068 31.9238 28.8477 31.4647 28.8477 30.8984C28.8477 30.332 29.3068 29.873 29.873 29.873C30.4393 29.873 30.8984 30.332 30.8984 30.8984C30.8984 31.4647 30.4393 31.9238 29.873 31.9238Z" fill="white"/>
<path d="M27.7559 0C23.7985 0 20.5781 3.2887 20.5781 7.24609C20.5781 11.2035 23.7985 14.4238 27.7559 14.4238C31.7133 14.4238 35.002 11.2035 35.002 7.24609C35.002 3.2887 31.7133 0 27.7559 0ZM30.5316 6.94565L27.4554 10.0218C27.2551 10.2221 26.9928 10.3223 26.7305 10.3223C26.4682 10.3223 26.2057 10.2221 26.0055 10.0218L24.4674 8.48374C24.0669 8.08322 24.0669 7.43429 24.4674 7.03377C24.8679 6.63325 25.5169 6.63325 25.9174 7.03377L26.7305 7.8469L29.0817 5.49568C29.4822 5.09517 30.1311 5.09517 30.5317 5.49568C30.9322 5.8962 30.9322 6.54514 30.5316 6.94565Z" fill="white"/>
</g>
<defs>
<clipPath id="clip0_443_10395">
<rect width="35" height="35" fill="white"/>
</clipPath>
</defs>
</svg>
