<svg width="35" height="35" viewBox="0 0 35 35" fill="none" xmlns="http://www.w3.org/2000/svg">
<g clip-path="url(#clip0_443_10358)">
<path d="M3.24048 0C1.56784 0 0.207031 1.37997 0.207031 3.07617V8.20312H15.3743L18.7448 0H3.24048ZM5.26278 5.12695C4.70435 5.12695 4.25163 4.66785 4.25163 4.10156C4.25163 3.53527 4.70435 3.07617 5.26278 3.07617C5.8212 3.07617 6.27393 3.53527 6.27393 4.10156C6.27393 4.66785 5.8212 5.12695 5.26278 5.12695ZM9.30737 5.12695C8.74895 5.12695 8.29622 4.66785 8.29622 4.10156C8.29622 3.53527 8.74895 3.07617 9.30737 3.07617C9.8658 3.07617 10.3185 3.53527 10.3185 4.10156C10.3185 4.66785 9.8658 5.12695 9.30737 5.12695ZM13.352 5.12695C12.7935 5.12695 12.3408 4.66785 12.3408 4.10156C12.3408 3.53527 12.7935 3.07617 13.352 3.07617C13.9104 3.07617 14.3631 3.53527 14.3631 4.10156C14.3631 4.66785 13.9104 5.12695 13.352 5.12695Z" fill="white"/>
<path d="M17.4626 24.3359C18.3933 24.3359 19.1478 23.5708 19.1478 22.627C19.1478 21.6831 18.3933 20.918 17.4626 20.918C16.5319 20.918 15.7773 21.6831 15.7773 22.627C15.7773 23.5708 16.5319 24.3359 17.4626 24.3359Z" fill="white"/>
<path d="M23.5353 20.256L24.0988 19.9261L23.0877 18.1501L22.52 18.4824C22.1376 18.7063 21.6562 18.6527 21.3309 18.3499C20.6991 17.7622 19.9765 17.336 19.1828 17.0832C18.7615 16.949 18.4747 16.5529 18.4747 16.1049V15.4492H16.4524V16.105C16.4524 16.5529 16.1657 16.949 15.7443 17.0833C14.9506 17.3361 14.2279 17.7623 13.5962 18.35C13.2709 18.6527 12.7896 18.7063 12.4071 18.4825L11.8394 18.1502L10.8283 19.9261L11.3918 20.2561C11.7739 20.4798 11.9689 20.929 11.8735 21.3658C11.7806 21.7903 11.7336 22.2146 11.7336 22.627C11.7336 23.0393 11.7806 23.4636 11.8733 23.8881C11.9688 24.325 11.7738 24.7741 11.3917 24.9978L10.8281 25.3278L11.8393 27.1037L12.407 26.7714C12.7894 26.5475 13.2708 26.6012 13.5962 26.9039C14.2279 27.4916 14.9506 27.9178 15.7442 28.1706C16.1656 28.3049 16.4523 28.701 16.4523 29.1489V29.8047H18.4746V29.1489C18.4746 28.701 18.7613 28.3049 19.1826 28.1706C19.9763 27.9178 20.699 27.4915 21.3307 26.9039C21.656 26.6011 22.1374 26.5475 22.5198 26.7714L23.0876 27.1037L24.0987 25.3278L23.5352 24.9978C23.1531 24.7741 22.9581 24.3249 23.0535 23.8881C23.1463 23.4636 23.1933 23.0393 23.1933 22.627C23.1933 22.2146 23.1463 21.7903 23.0537 21.3658C22.9582 20.9289 23.1532 20.4798 23.5353 20.256ZM17.4635 26.3867C15.4191 26.3867 13.7559 24.7001 13.7559 22.627C13.7559 20.5538 15.4191 18.8672 17.4635 18.8672C19.5078 18.8672 21.171 20.5538 21.171 22.627C21.171 24.7001 19.5078 26.3867 17.4635 26.3867Z" fill="white"/>
<path d="M31.6875 0H20.9356L16.9817 9.62295C16.8247 10.0051 16.4565 10.2539 16.0484 10.2539H0.207031V31.9238C0.207031 33.62 1.56784 35 3.24048 35H31.6875C33.3601 35 34.7209 33.62 34.7209 31.9238V3.07617C34.7209 1.37997 33.3601 0 31.6875 0ZM5.26278 15.3809C4.70435 15.3809 4.25163 14.9218 4.25163 14.3555C4.25163 13.7892 4.70435 13.3301 5.26278 13.3301H7.95917C8.5176 13.3301 8.97032 13.7892 8.97032 14.3555C8.97032 14.9218 8.5176 15.3809 7.95917 15.3809H5.26278ZM25.2161 22.627C25.2161 22.9414 25.1963 23.2597 25.157 23.5791L25.9861 24.0646C26.4697 24.3478 26.6354 24.9748 26.3562 25.4652L24.3339 29.0173C24.0546 29.5076 23.4363 29.6758 22.9527 29.3925L22.12 28.905C21.6151 29.2933 21.0726 29.6131 20.4974 29.8621V30.8301C20.4974 31.3964 20.0446 31.8555 19.4862 31.8555H15.4416C14.8832 31.8555 14.4305 31.3964 14.4305 30.8301V29.8621C13.8552 29.6131 13.3127 29.2933 12.8078 28.905L11.9751 29.3925C11.4915 29.676 10.8731 29.5077 10.5939 29.0173L8.57159 25.4652C8.29238 24.9748 8.45808 24.3477 8.94167 24.0646L9.77082 23.5791C9.73165 23.2597 9.71183 22.9414 9.71183 22.627C9.71183 22.3125 9.73165 21.9942 9.77095 21.6748L8.94181 21.1894C8.45821 20.9061 8.29252 20.2791 8.57173 19.7887L10.594 16.2367C10.8732 15.7462 11.4916 15.5781 11.9753 15.8613L12.808 16.3488C13.3129 15.9606 13.8553 15.6407 14.4306 15.3918V14.4238C14.4306 13.8575 14.8833 13.3984 15.4417 13.3984H19.4863C20.0448 13.3984 20.4975 13.8575 20.4975 14.4238V15.3918C21.0728 15.6407 21.6152 15.9606 22.1201 16.3488L22.9528 15.8613C23.4364 15.5782 24.0548 15.7462 24.3341 16.2367L26.3564 19.7887C26.6356 20.2791 26.4699 20.9062 25.9863 21.1894L25.1571 21.6748C25.1963 21.9942 25.2161 22.3125 25.2161 22.627Z" fill="white"/>
</g>
<defs>
<clipPath id="clip0_443_10358">
<rect width="34.5139" height="35" fill="white" transform="translate(0.207031)"/>
</clipPath>
</defs>
</svg>
