<svg width="35" height="35" viewBox="0 0 35 35" fill="none" xmlns="http://www.w3.org/2000/svg">
<g clip-path="url(#clip0_443_10405)">
<path d="M15.3144 3.34961H19.6894C20.3302 3.34961 20.8515 2.8283 20.8515 2.1875V0H14.1523V2.1875C14.1523 2.8283 14.6736 3.34961 15.3144 3.34961Z" fill="white"/>
<path d="M22.9004 0V2.18751C22.9004 3.95912 21.4591 5.40041 19.6875 5.40041H15.3125C13.5409 5.40041 12.0996 3.95912 12.0996 2.18751V0H6.5625V35H28.4375V0H22.9004ZM18.6973 8.38732L20.5559 9.25405L16.3026 18.3754L14.444 17.5087L18.6973 8.38732ZM20.5847 20.5933V22.6441H14.4152V20.5933H20.5847ZM13.1963 9.45113L14.6464 10.9013L12.1661 13.3814L14.6464 15.8619L13.1963 17.3119L9.26592 13.3813L13.1963 9.45113ZM12.3474 20.5933V22.6441H10.2966V20.5933H12.3474ZM10.2966 24.7119H16.466V26.7627H10.2966V24.7119ZM20.5847 31.8384H14.4152V29.7876H20.5847V31.8384ZM24.7678 26.7627H18.5339V24.7119H24.7678V26.7627ZM24.7678 22.6441H22.717V20.5933H24.7678V22.6441ZM21.8038 17.312L20.3536 15.8618L22.8339 13.3817L20.3536 10.9012L21.8038 9.4512L25.7341 13.3818L21.8038 17.312Z" fill="white"/>
</g>
<defs>
<clipPath id="clip0_443_10405">
<rect width="35" height="35" fill="white"/>
</clipPath>
</defs>
</svg>
