<svg width="35" height="35" viewBox="0 0 35 35" fill="none" xmlns="http://www.w3.org/2000/svg">
<path d="M15.0781 12.8468L19.0931 15.5776V10.116L15.0781 12.8468Z" fill="white"/>
<path d="M15.0781 22.1532L19.0931 24.884V19.4224L15.0781 22.1532Z" fill="white"/>
<path d="M16.7832 18.5254H9.74609L13.2646 20.9186L16.7832 18.5254Z" fill="white"/>
<path d="M9.74609 16.4745H16.7832L13.2646 14.0813L9.74609 16.4745Z" fill="white"/>
<path d="M13.2646 11.6122L16.7832 9.21899H9.74609L13.2646 11.6122Z" fill="white"/>
<path d="M11.4485 22.1532L7.43359 19.4224V24.884L11.4485 22.1532Z" fill="white"/>
<path d="M13.2646 23.3879L9.74609 25.7811H16.7832L13.2646 23.3879Z" fill="white"/>
<path d="M23.6386 0H2.94922V35H23.6386V0ZM8.97769 2.55869H17.2314V4.60947H8.97769V2.55869ZM15.5469 32.4413H10.6621V30.3905H15.5469V32.4413ZM21.1155 16.4746V18.5254V27.8319H5.41042V18.5254V16.4746V7.1681H21.1155V16.4746Z" fill="white"/>
<path d="M11.4485 12.8468L7.43359 10.116V15.5776L11.4485 12.8468Z" fill="white"/>
<path d="M28.2578 30.9774V33.3249C28.2578 34.2485 28.9988 35 29.9096 35C30.8204 35 31.5614 34.2485 31.5614 33.3249V30.9774H28.2578Z" fill="white"/>
<path d="M28.2578 5.53528H31.5614V28.9267H28.2578V5.53528Z" fill="white"/>
<path d="M28.2578 1.77331V3.48448H31.5614V1.77331L29.9096 0L28.2578 1.77331Z" fill="white"/>
</svg>
