<svg width="35" height="35" viewBox="0 0 35 35" fill="none" xmlns="http://www.w3.org/2000/svg">
<path d="M19.8945 10.3906C19.8945 9.07136 18.8212 7.99805 17.502 7.99805C16.1827 7.99805 15.1094 9.07136 15.1094 10.3906C15.1094 11.7099 16.1827 12.7832 17.502 12.7832C18.8212 12.7832 19.8945 11.7099 19.8945 10.3906Z" fill="white"/>
<path d="M28.0977 26.1133V3.75977C28.0977 1.68663 26.411 0 24.3379 0H10.666C8.59288 0 6.90625 1.68663 6.90625 3.75977V26.1133H28.0977ZM20.2363 22.0117H14.7676C14.2013 22.0117 13.7422 21.5526 13.7422 20.9863C13.7422 20.42 14.2013 19.9609 14.7676 19.9609H20.2363C20.8026 19.9609 21.2617 20.42 21.2617 20.9863C21.2617 21.5526 20.8026 22.0117 20.2363 22.0117ZM12.0332 9.36523H13.1793C13.2903 8.89738 13.4748 8.45776 13.7211 8.05984L12.9099 7.24869C12.5095 6.84824 12.5095 6.19903 12.9099 5.79858C13.3103 5.39813 13.9596 5.39813 14.36 5.79858L15.1712 6.60974C15.5691 6.36351 16.0087 6.179 16.4766 6.06799V4.92188C16.4766 4.35559 16.9357 3.89648 17.502 3.89648C18.0682 3.89648 18.5273 4.35559 18.5273 4.92188V6.06799C18.9952 6.179 19.4348 6.36351 19.8327 6.60974L20.6439 5.79858C21.0443 5.39813 21.6935 5.39813 22.094 5.79858C22.4944 6.19903 22.4944 6.84824 22.094 7.24869L21.2828 8.05984C21.5291 8.45776 21.7136 8.89738 21.8246 9.36523H22.9707C23.537 9.36523 23.9961 9.82434 23.9961 10.3906C23.9961 10.9569 23.537 11.416 22.9707 11.416H21.8246C21.7136 11.8839 21.5291 12.3235 21.2828 12.7214L22.094 13.5326C22.4944 13.933 22.4944 14.5822 22.094 14.9827C21.8938 15.1829 21.6313 15.283 21.369 15.283C21.1066 15.283 20.8441 15.183 20.644 14.9827L19.8328 14.1715C19.4349 14.4177 18.9953 14.6022 18.5274 14.7133V15.8594C18.5274 16.4257 18.0683 16.8848 17.502 16.8848C16.9357 16.8848 16.4766 16.4257 16.4766 15.8594V14.7133C16.0088 14.6022 15.5692 14.4177 15.1712 14.1715L14.3601 14.9827C14.1599 15.1829 13.8974 15.283 13.6351 15.283C13.3727 15.283 13.1102 15.183 12.91 14.9827C12.5096 14.5822 12.5096 13.933 12.91 13.5326L13.7212 12.7214C13.475 12.3235 13.2905 11.8839 13.1795 11.416H12.0332C11.4669 11.416 11.0078 10.9569 11.0078 10.3906C11.0078 9.82434 11.4669 9.36523 12.0332 9.36523Z" fill="white"/>
<path d="M6.90625 28.1641V31.2402C6.90625 33.3134 8.59288 35 10.666 35H24.3379C26.411 35 28.0977 33.3134 28.0977 31.2402V28.1641H6.90625ZM18.8691 32.6074H16.1348C15.5685 32.6074 15.1094 32.1483 15.1094 31.582C15.1094 31.0157 15.5685 30.5566 16.1348 30.5566H18.8691C19.4354 30.5566 19.8945 31.0157 19.8945 31.582C19.8945 32.1483 19.4354 32.6074 18.8691 32.6074Z" fill="white"/>
</svg>
