<svg width="35" height="35" viewBox="0 0 35 35" fill="none" xmlns="http://www.w3.org/2000/svg">
<g clip-path="url(#clip0_443_10384)">
<path d="M24.7939 16.543C25.204 17.7323 26.3525 18.5938 27.6855 18.5938H31.9238C33.6261 18.5938 35 17.2196 35 15.5176C35 13.8153 33.6261 12.4414 31.9238 12.4414H27.6855C26.3525 12.4414 25.204 13.3026 24.7939 14.4922H22.5586V16.543H24.7939Z" fill="white"/>
<path d="M24.7939 26.7969C25.204 27.9862 26.3525 28.8477 27.6855 28.8477H31.9238C33.6261 28.8477 35 27.4735 35 25.7715C35 24.0692 33.6261 22.6953 31.9238 22.6953H27.6855C26.3525 22.6953 25.204 23.5565 24.7939 24.7461H22.5586V26.7969H24.7939Z" fill="white"/>
<path d="M12.3047 15.5176C12.3047 14.9517 11.8451 14.4922 11.2793 14.4922C10.7135 14.4922 10.2539 14.9517 10.2539 15.5176C10.2539 16.0834 10.7135 16.543 11.2793 16.543C11.8451 16.543 12.3047 16.0834 12.3047 15.5176Z" fill="white"/>
<path d="M11.2805 18.5938C10.2479 18.5938 9.31841 19.1246 8.75391 19.9513C9.50292 20.3802 10.3577 20.6445 11.2805 20.6445C12.2034 20.6445 13.0581 20.3802 13.8072 19.9513C13.2427 19.1246 12.3131 18.5938 11.2805 18.5938Z" fill="white"/>
<path d="M11.2793 10.3906C8.45253 10.3906 6.15234 12.6908 6.15234 15.5176C6.15234 16.669 6.54755 17.7211 7.19082 18.578C7.60818 18.0276 8.13797 17.5804 8.73131 17.2386C8.39806 16.747 8.20312 16.1547 8.20312 15.5176C8.20312 13.8214 9.58313 12.4414 11.2793 12.4414C12.9755 12.4414 14.3555 13.8214 14.3555 15.5176C14.3555 16.1547 14.1605 16.747 13.8273 17.2386C14.4206 17.5804 14.9504 18.0276 15.3678 18.578C16.011 17.7211 16.4062 16.669 16.4062 15.5176C16.4062 12.6908 14.1061 10.3906 11.2793 10.3906Z" fill="white"/>
<path d="M18.3751 16.543C17.8984 19.9599 14.8361 22.6953 11.2793 22.6953C7.37774 22.6953 4.10156 19.4312 4.10156 15.5176C4.10156 11.5597 7.3214 8.33984 11.2793 8.33984C14.8887 8.33984 17.8827 11.0264 18.3751 14.4922H22.5586V6.15234H0V28.8477H22.5586V26.7969H19.4824C18.908 26.7969 18.457 26.3456 18.457 25.7715C18.457 25.1971 18.908 24.7461 19.4824 24.7461H22.5586V16.543H18.3751ZM7.17773 26.7969C6.60336 26.7969 6.15234 26.3456 6.15234 25.7715C6.15234 25.1971 6.60336 24.7461 7.17773 24.7461C7.75211 24.7461 8.20312 25.1971 8.20312 25.7715C8.20312 26.3456 7.75211 26.7969 7.17773 26.7969ZM11.2793 26.7969C10.7049 26.7969 10.2539 26.3456 10.2539 25.7715C10.2539 25.1971 10.7049 24.7461 11.2793 24.7461C11.8537 24.7461 12.3047 25.1971 12.3047 25.7715C12.3047 26.3456 11.8537 26.7969 11.2793 26.7969ZM15.3809 26.7969C14.8065 26.7969 14.3555 26.3456 14.3555 25.7715C14.3555 25.1971 14.8065 24.7461 15.3809 24.7461C15.9552 24.7461 16.4062 25.1971 16.4062 25.7715C16.4062 26.3456 15.9552 26.7969 15.3809 26.7969Z" fill="white"/>
<path d="M3.07617 35H19.4824C21.1786 35 22.5586 33.62 22.5586 31.9238V30.8984H0V31.9238C0 33.62 1.38 35 3.07617 35Z" fill="white"/>
<path d="M22.5586 3.07617C22.5586 1.38 21.1786 0 19.4824 0H3.07617C1.38 0 0 1.38 0 3.07617V4.10156H22.5586V3.07617Z" fill="white"/>
</g>
<defs>
<clipPath id="clip0_443_10384">
<rect width="35" height="35" fill="white"/>
</clipPath>
</defs>
</svg>
