<svg width="35" height="35" viewBox="0 0 35 35" fill="none" xmlns="http://www.w3.org/2000/svg">
<g clip-path="url(#clip0_443_10377)">
<path d="M10.9258 2.29004L14.2636 10.4476H35.0014V2.29004H10.9258ZM23.407 7.40954H21.3563V5.35876H23.407V7.40954ZM27.5086 7.40954H25.4578V5.35876H27.5086V7.40954ZM31.6102 7.40954H29.5594V5.35876H31.6102V7.40954Z" fill="white"/>
<path d="M8.70851 2.29004H0V32.71H35V12.4983H12.8855L8.70851 2.29004ZM17.8318 18.0227L19.5381 16.8852L22.3299 21.0729L25.1217 16.8852L26.828 18.0227L23.5623 22.9214L26.828 27.82L25.1217 28.9576L22.3299 24.7699L19.5381 28.9576L17.8318 27.82L21.0975 22.9214L17.8318 18.0227ZM14.1095 24.9093V16.9393H16.1603V24.9093C16.1603 27.1117 14.3685 28.9035 12.1661 28.9035C9.96372 28.9035 8.17188 27.1117 8.17188 24.9093V16.9393H10.2227V24.9093C10.2227 25.9809 11.0945 26.8527 12.1661 26.8527C13.2377 26.8527 14.1095 25.9809 14.1095 24.9093Z" fill="white"/>
</g>
<defs>
<clipPath id="clip0_443_10377">
<rect width="35" height="35" fill="white"/>
</clipPath>
</defs>
</svg>
