<svg width="35" height="35" viewBox="0 0 35 35" fill="none" xmlns="http://www.w3.org/2000/svg">
<path d="M27.4805 29.1211C26.3352 29.1211 25.3529 29.829 24.9463 30.8301H22.5586V32.8809H24.9463C25.3529 33.8819 26.3352 34.5898 27.4805 34.5898C28.9882 34.5898 30.2148 33.3632 30.2148 31.8555C30.2148 30.3477 28.9882 29.1211 27.4805 29.1211Z" fill="white"/>
<path d="M32.2656 23.3105C31.8162 23.3105 31.3921 23.4202 31.0177 23.6132L28.4787 21.4974C28.2944 21.3438 28.0621 21.2598 27.8223 21.2598H22.5586V23.3105H27.451L29.6771 25.1657C29.5831 25.4418 29.5312 25.7373 29.5312 26.0449C29.5312 27.5527 30.7579 28.7793 32.2656 28.7793C33.7734 28.7793 35 27.5527 35 26.0449C35 24.5372 33.7734 23.3105 32.2656 23.3105Z" fill="white"/>
<path d="M32.2656 14.7656C31.1204 14.7656 30.138 15.4736 29.7315 16.4746H22.5586V18.5254H29.7315C30.138 19.5264 31.1204 20.2344 32.2656 20.2344C33.7734 20.2344 35 19.0077 35 17.5C35 15.9923 33.7734 14.7656 32.2656 14.7656Z" fill="white"/>
<path d="M28.4787 13.5025L31.0177 11.3868C31.3921 11.5798 31.8162 11.6895 32.2656 11.6895C33.7734 11.6895 35 10.4628 35 8.95508C35 7.44734 33.7734 6.2207 32.2656 6.2207C30.7579 6.2207 29.5312 7.44734 29.5312 8.95508C29.5312 9.2627 29.5831 9.55821 29.6771 9.83432L27.451 11.6895H22.5586V13.7402H27.8223C28.0621 13.7402 28.2944 13.6562 28.4787 13.5025Z" fill="white"/>
<path d="M27.4805 5.87891C28.9882 5.87891 30.2148 4.65227 30.2148 3.14453C30.2148 1.6368 28.9882 0.410156 27.4805 0.410156C26.3352 0.410156 25.3529 1.11809 24.9463 2.11914H22.5586V4.16992H24.9463C25.3529 5.17098 26.3352 5.87891 27.4805 5.87891Z" fill="white"/>
<path d="M10.2539 17.5C10.2539 21.4578 13.4738 24.6777 17.4316 24.6777C18.5319 24.6777 19.5749 24.4286 20.5078 23.9842V11.0158C19.5749 10.5714 18.5319 10.3223 17.4316 10.3223C13.4738 10.3223 10.2539 13.5422 10.2539 17.5Z" fill="white"/>
<path d="M19.4824 0.0683594H15.3809C14.8146 0.0683594 14.3555 0.527461 14.3555 1.09375V2.42847C12.4314 2.82044 10.59 3.58326 8.94988 4.66785L8.00584 3.72388C7.60539 3.32343 6.95618 3.32343 6.55573 3.72388L3.65552 6.62409C3.25507 7.02447 3.25507 7.67375 3.65552 8.0742L4.59949 9.01824C3.5149 10.6584 2.75208 12.4997 2.36011 14.4238H1.02539C0.459102 14.4238 0 14.8829 0 15.4492V19.5508C0 20.1171 0.459102 20.5762 1.02539 20.5762H2.36011C2.75208 22.5003 3.5149 24.3416 4.59949 25.9818L3.65545 26.9259C3.46315 27.1182 3.35515 27.379 3.35515 27.6509C3.35515 27.9228 3.46315 28.1835 3.65545 28.3758L6.55573 31.2761C6.95618 31.6766 7.60539 31.6766 8.00584 31.2761L8.94988 30.3321C10.59 31.4167 12.4314 32.1795 14.3555 32.5715V33.9062C14.3555 34.4725 14.8146 34.9316 15.3809 34.9316H19.4824C20.0487 34.9316 20.5078 34.4725 20.5078 33.9062V26.2006C19.5452 26.542 18.5099 26.7285 17.4316 26.7285C12.343 26.7285 8.20312 22.5886 8.20312 17.5C8.20312 12.4114 12.343 8.27148 17.4316 8.27148C18.5099 8.27148 19.5452 8.45797 20.5078 8.79936V1.09375C20.5078 0.527461 20.0487 0.0683594 19.4824 0.0683594Z" fill="white"/>
</svg>
