<svg width="35" height="35" viewBox="0 0 35 35" fill="none" xmlns="http://www.w3.org/2000/svg">
<g clip-path="url(#clip0_443_9794)">
<path d="M28.2969 8.20068H34.9996V26.1442H28.2969V8.20068Z" fill="white"/>
<path d="M32.5612 2.13014C32.3863 1.78568 32.0327 1.56885 31.6469 1.56885C31.2608 1.56885 30.9072 1.78568 30.7326 2.13014L28.6914 6.14999H34.6021L32.5612 2.13014Z" fill="white"/>
<path d="M28.2969 30.793C28.2969 32.2945 29.5273 33.5162 31.0398 33.5162H32.2566C33.7691 33.5162 34.9996 32.2945 34.9996 30.793V28.1951H28.2969V30.793Z" fill="white"/>
<path d="M21.7751 1.50391H4.40224C1.97495 1.50391 0 3.47858 0 5.90614V29.1142C0 31.5414 1.97495 33.5161 4.40224 33.5161H21.7751C24.2024 33.5161 26.1774 31.5414 26.1774 29.1142V5.90614C26.1774 3.47858 24.2024 1.50391 21.7751 1.50391ZM11.3666 26.7734H5.24712C4.68075 26.7734 4.22173 26.3144 4.22173 25.748C4.22173 25.1816 4.68075 24.7226 5.24712 24.7226H11.3666C11.933 24.7226 12.392 25.1816 12.392 25.748C12.392 26.3144 11.933 26.7734 11.3666 26.7734ZM11.3666 22.6029H5.24712C4.68075 22.6029 4.22173 22.1439 4.22173 21.5775C4.22173 21.0112 4.68075 20.5521 5.24712 20.5521H11.3666C11.933 20.5521 12.392 21.0112 12.392 21.5775C12.392 22.1439 11.933 22.6029 11.3666 22.6029ZM11.3666 18.5011H5.24712C4.68075 18.5011 4.22173 18.0421 4.22173 17.4757C4.22173 16.9093 4.68075 16.4503 5.24712 16.4503H11.3666C11.933 16.4503 12.392 16.9093 12.392 17.4757C12.392 18.0421 11.933 18.5011 11.3666 18.5011ZM11.3666 14.3993H5.24712C4.68075 14.3993 4.22173 13.9402 4.22173 13.3739C4.22173 12.8075 4.68075 12.3485 5.24712 12.3485H11.3666C11.933 12.3485 12.392 12.8075 12.392 13.3739C12.392 13.9402 11.933 14.3993 11.3666 14.3993ZM11.3666 10.2974H5.24712C4.68075 10.2974 4.22173 9.83841 4.22173 9.27204C4.22173 8.70567 4.68075 8.24665 5.24712 8.24665H11.3666C11.933 8.24665 12.392 8.70567 12.392 9.27204C12.392 9.83841 11.933 10.2974 11.3666 10.2974ZM17.7579 26.7734H14.8105C14.2441 26.7734 13.7851 26.3144 13.7851 25.748C13.7851 25.1816 14.2441 24.7226 14.8105 24.7226H17.7579C18.3243 24.7226 18.7833 25.1816 18.7833 25.748C18.7833 26.3144 18.3243 26.7734 17.7579 26.7734ZM20.9303 14.3993H14.8105C14.2444 14.3993 13.7851 13.9402 13.7851 13.3739C13.7851 12.8075 14.2444 12.3485 14.8105 12.3485H20.9303C21.4966 12.3485 21.9556 12.8075 21.9556 13.3739C21.9556 13.9402 21.4966 14.3993 20.9303 14.3993ZM20.9303 10.2974H14.8105C14.2444 10.2974 13.7851 9.83841 13.7851 9.27204C13.7851 8.70567 14.2444 8.24665 14.8105 8.24665H20.9303C21.4966 8.24665 21.9556 8.70567 21.9556 9.27204C21.9556 9.83841 21.4966 10.2974 20.9303 10.2974Z" fill="white"/>
</g>
<defs>
<clipPath id="clip0_443_9794">
<rect width="35" height="35" fill="white"/>
</clipPath>
</defs>
</svg>
