<svg width="35" height="35" viewBox="0 0 35 35" fill="none" xmlns="http://www.w3.org/2000/svg">
<g clip-path="url(#clip0_443_9840)">
<path d="M3.21289 20.6445H1.02539C0.459102 20.6445 0 21.1036 0 21.6699V33.9746C0 34.5409 0.459102 35 1.02539 35H4.23828V21.6699C4.23828 21.1036 3.77918 20.6445 3.21289 20.6445Z" fill="white"/>
<path d="M30.8305 21.3287L26.3489 24.4667C26.4275 24.7976 26.4704 25.1424 26.4704 25.4974C26.4704 27.9516 24.4807 29.9412 22.0265 29.941L15.7471 29.9405C15.1808 29.9404 14.7217 29.4813 14.7217 28.915C14.7218 28.3487 15.1809 27.8896 15.7472 27.8897L22.0266 27.8902L22.0268 27.8901C23.3482 27.8901 24.4195 26.8189 24.4196 25.4973C24.4196 24.1759 23.3483 23.1046 22.0269 23.1046H16.4039C15.5277 23.1046 14.6742 22.853 13.9218 22.4039C11.9366 21.2191 9.50906 21.1085 7.42383 22.1089L6.28906 22.6533V35H20.4452C22.8304 35 25.0939 34.0928 26.8188 32.4455L34.1803 25.4154C34.7038 24.9155 35 24.2231 35 23.4992C35 21.3553 32.5866 20.099 30.8305 21.3287Z" fill="white"/>
<path d="M29.8066 6.83594C29.2404 6.83594 28.7812 7.29504 28.7812 7.86133C28.7812 8.42762 29.2404 8.88672 29.8066 8.88672H31.8574C32.4237 8.88672 32.8828 8.42762 32.8828 7.86133C32.8828 7.29504 32.4237 6.83594 31.8574 6.83594H29.8066Z" fill="white"/>
<path d="M29.632 4.30585L31.408 3.28046C31.8984 2.99732 32.0664 2.37019 31.7832 1.87978C31.5001 1.38937 30.873 1.22134 30.3826 1.50449L28.6066 2.52988C28.1162 2.81302 27.9481 3.44015 28.2313 3.93056C28.5144 4.42097 29.1416 4.589 29.632 4.30585Z" fill="white"/>
<path d="M28.6066 13.1926L30.3826 14.218C30.873 14.5011 31.5001 14.3331 31.7832 13.8427C32.0664 13.3523 31.8984 12.7251 31.408 12.442L29.632 11.4166C29.1416 11.1335 28.5144 11.3015 28.2313 11.7919C27.9481 12.2823 28.1162 12.9094 28.6066 13.1926Z" fill="white"/>
<path d="M7.92773 8.88672C8.49402 8.88672 8.95312 8.42762 8.95312 7.86133C8.95312 7.29504 8.49402 6.83594 7.92773 6.83594H5.87695C5.31066 6.83594 4.85156 7.29504 4.85156 7.86133C4.85156 8.42762 5.31066 8.88672 5.87695 8.88672H7.92773Z" fill="white"/>
<path d="M6.32535 3.28046L8.10133 4.30585C8.59174 4.589 9.21887 4.42097 9.50201 3.93056C9.78516 3.44015 9.61713 2.81302 9.12672 2.52988L7.35074 1.50449C6.86033 1.22134 6.2332 1.38937 5.95006 1.87978C5.66691 2.37019 5.83487 2.99732 6.32535 3.28046Z" fill="white"/>
<path d="M7.35073 14.218L9.1267 13.1926C9.61711 12.9094 9.78514 12.2823 9.502 11.7919C9.21885 11.3015 8.59172 11.1335 8.10131 11.4166L6.32534 12.442C5.83493 12.7251 5.6669 13.3523 5.95004 13.8427C6.23319 14.3331 6.86025 14.5011 7.35073 14.218Z" fill="white"/>
<path d="M14.8516 18.7988C14.8516 20.1202 15.9228 21.1914 17.2441 21.1914H20.4912C21.8126 21.1914 22.8838 20.1202 22.8838 18.7988V18.1152H14.8516V18.7988Z" fill="white"/>
<path d="M13.8691 13.9219C14.4943 14.4374 14.853 15.1469 14.853 15.8685V16.0645H17.8438V9.65323L16.0933 7.90282C15.6929 7.50237 15.6929 6.85316 16.0933 6.45271C16.4937 6.05227 17.143 6.05227 17.5434 6.45271L18.8691 7.77841L20.1949 6.45271C20.5953 6.05227 21.2446 6.05227 21.645 6.45271C22.0455 6.85316 22.0455 7.50237 21.645 7.90282L19.8945 9.65323V16.0645H22.8853V15.8685C22.8853 15.1469 23.2439 14.4374 23.8692 13.9219C25.6876 12.4227 26.7305 10.2137 26.7305 7.86133C26.7305 3.52659 23.2039 0 18.8691 0C14.5344 0 11.0078 3.52659 11.0078 7.86133C11.0078 10.2137 12.0507 12.4227 13.8691 13.9219Z" fill="white"/>
</g>
<defs>
<clipPath id="clip0_443_9840">
<rect width="35" height="35" fill="white"/>
</clipPath>
</defs>
</svg>
