<svg width="35" height="35" viewBox="0 0 35 35" fill="none" xmlns="http://www.w3.org/2000/svg">
<path d="M1.75454 33.2078C2.7087 34.1616 4.35021 34.2134 5.32017 33.2434L15.2916 23.272C15.9769 23.5341 16.7207 23.6782 17.498 23.6782C20.9099 23.6782 23.6764 20.9117 23.6764 17.4999C23.6764 16.5483 23.461 15.6473 23.0769 14.8427L18.3546 19.565H16.6463L15.4384 18.3564V16.6488L20.1627 11.9245C19.3561 11.5382 18.4523 11.3215 17.498 11.3215C14.0862 11.3215 11.3197 14.088 11.3197 17.4999C11.3197 18.2773 11.4638 19.021 11.7259 19.7063L1.75454 29.6778C0.779736 30.6526 0.779736 32.233 1.75454 33.2078Z" fill="white"/>
<path d="M35 19.6875V15.3125L32.6108 15.0138C32.4454 14.0048 32.1822 13.0293 31.8309 12.0969L33.749 10.6442L31.5615 6.85576L29.3419 7.79228C28.7021 7.01299 27.987 6.29795 27.2077 5.65811L28.1442 3.43848L24.3558 1.25098L22.9031 3.16914C21.9707 2.81777 20.9952 2.55459 19.9862 2.38916L19.6875 0H15.3125L15.0138 2.38916C14.0048 2.55459 13.0293 2.81777 12.0969 3.16914L10.6442 1.25098L6.85576 3.43848L7.79228 5.65811C7.01299 6.29795 6.29795 7.01299 5.65811 7.79228L3.43848 6.85576L1.25098 10.6442L3.16914 12.0969C2.81777 13.0293 2.55459 14.0048 2.38916 15.0138L0 15.3125V19.6875L2.38916 19.9862C2.55459 20.9952 2.81777 21.9707 3.16914 22.9031L1.25098 24.3558L2.32251 26.2116L6.94319 21.5909C6.44943 20.3215 6.17798 18.9419 6.17798 17.5C6.17798 11.257 11.257 6.17798 17.5 6.17798C23.743 6.17798 28.822 11.257 28.822 17.5C28.822 23.743 23.743 28.822 17.5 28.822C16.0581 28.822 14.6787 28.5504 13.4093 28.0566L8.78849 32.6774L10.6442 33.749L12.0969 31.8309C13.0293 32.1822 14.0048 32.4454 15.0138 32.6108L15.3125 35H19.6875L19.9862 32.6108C20.9952 32.4454 21.9707 32.1822 22.9031 31.8309L24.3558 33.749L28.1442 31.5615L27.2077 29.3419C27.987 28.7021 28.7021 27.987 29.3419 27.2077L31.5615 28.1442L33.749 24.3558L31.8309 22.9031C32.1822 21.9707 32.4454 20.9952 32.6108 19.9862L35 19.6875Z" fill="white"/>
</svg>
