<svg width="56" height="54" viewBox="0 0 56 54" fill="none" xmlns="http://www.w3.org/2000/svg">
<g clip-path="url(#clip0_443_12002)">
<path d="M37.9977 38.0321C37.4272 38.0321 36.9648 38.4958 36.9648 39.067C36.9648 39.6383 37.4272 40.102 37.9977 40.102C38.5679 40.102 39.0306 39.6383 39.0306 39.067C39.0306 38.4958 38.5679 38.0321 37.9977 38.0321Z" fill="white"/>
<path d="M29.1127 19.8178C29.1127 19.2461 28.6499 18.7828 28.0798 18.7828C27.5097 18.7828 27.0469 19.2461 27.0469 19.8178C27.0469 20.389 27.5097 20.8527 28.0798 20.8527C28.6499 20.8527 29.1127 20.389 29.1127 19.8178Z" fill="white"/>
<path d="M17.4079 40.8574C17.978 40.8574 18.4408 40.3938 18.4408 39.8225C18.4408 39.2513 17.978 38.7876 17.4079 38.7876C16.8378 38.7876 16.375 39.2513 16.375 39.8225C16.375 40.3938 16.8378 40.8574 17.4079 40.8574Z" fill="white"/>
<path d="M53.9077 45.0198L48.3236 42.534V19.8178C48.3236 19.4079 48.0787 19.0283 47.6893 18.8625L29.112 10.8568V3.25905C29.112 2.68741 28.6492 2.22412 28.0791 2.22412C27.5086 2.22412 27.0462 2.68741 27.0462 3.25905V10.8568L8.46886 18.8625C8.09968 19.0162 7.83459 19.3909 7.83459 19.8178V42.534L2.25046 45.0198C1.72917 45.2523 1.49434 45.8636 1.72594 46.3859C1.95592 46.9049 2.56437 47.1451 3.08929 46.9114L8.87395 44.3362L27.6712 52.4365C27.9197 52.5437 28.2235 52.5501 28.4874 52.4365L47.2842 44.3362L53.0689 46.9114C53.5958 47.1459 54.2031 46.9029 54.4322 46.3859C54.6638 45.8636 54.429 45.2523 53.9077 45.0198ZM27.0462 13.1102V15.6781C27.0462 16.2494 27.5086 16.7131 28.0791 16.7131C28.6492 16.7131 29.112 16.2494 29.112 15.6781V13.1102L44.6765 19.8178L28.0791 26.9705L11.4816 19.8178L27.0462 13.1102ZM15.332 40.3283C15.1 39.806 14.4896 39.5711 13.9687 39.8028L9.89999 41.6143V21.3892L27.0462 28.7784V49.9143L11.4457 43.1913L14.8075 41.6947C15.3288 41.4623 15.5636 40.8506 15.332 40.3283ZM29.112 49.9143V28.7784L46.2578 21.3892V41.6143L42.1895 39.8032C41.6678 39.5711 41.0578 39.806 40.8262 40.3287C40.5946 40.851 40.8294 41.4623 41.3507 41.6947L44.7125 43.1913L29.112 49.9143Z" fill="#FCFCFC"/>
<rect x="26.5703" y="1.58252" width="3.02198" height="15.8654" rx="1.51099" fill="#70D1AC"/>
<rect x="15.1211" y="38.9806" width="3.02198" height="15.8654" rx="1.51099" transform="rotate(66.6462 15.1211 38.9806)" fill="#70D1AC"/>
<rect x="55.1914" y="44.8286" width="3.02198" height="15.8654" rx="1.51099" transform="rotate(112.901 55.1914 44.8286)" fill="#70D1AC"/>
</g>
<defs>
<clipPath id="clip0_443_12002">
<rect width="54.3956" height="52.8846" fill="white" transform="translate(0.882812 0.826904)"/>
</clipPath>
</defs>
</svg>
