<svg width="40" height="46" viewBox="0 0 40 46" fill="none" xmlns="http://www.w3.org/2000/svg">
<path d="M16.4378 30.5074L16.6491 30.2961C17.0231 30.4873 17.4121 30.6486 17.8129 30.7789V31.0769C17.8129 31.8167 18.4145 32.4184 19.154 32.4184H21.4422C22.1816 32.4184 22.7833 31.8167 22.7833 31.0769V30.7787C23.1827 30.6487 23.5715 30.4873 23.9468 30.2958L24.1584 30.5074C24.6783 31.0275 25.5272 31.0285 26.0533 30.5074L27.6728 28.8873C28.1926 28.3673 28.1935 27.518 27.6728 26.992L27.4614 26.7806C27.6525 26.4066 27.8139 26.0174 27.944 25.6164H28.2419C28.9802 25.6164 29.5807 25.0146 29.5807 24.2748V21.986C29.5807 21.2462 28.9801 20.6444 28.2419 20.6444H27.9439C27.8139 20.245 27.6525 19.8559 27.4611 19.4806L27.6728 19.2688C28.1926 18.7487 28.1935 17.8994 27.6723 17.3732L26.0533 15.756C25.8001 15.5027 25.4634 15.3634 25.105 15.3634C25.1038 15.3634 25.1028 15.3634 25.1017 15.3634C24.7434 15.3642 24.4075 15.5044 24.1594 15.755L23.9478 15.9657C23.5722 15.7739 23.183 15.6123 22.7833 15.4822V15.184C22.7833 14.4456 22.1817 13.8448 21.4422 13.8448H19.154C18.4146 13.8448 17.8129 14.4456 17.8129 15.184V15.482C17.4118 15.6123 17.0223 15.7739 16.648 15.9653L16.4399 15.7581C16.1877 15.5035 15.8505 15.3633 15.4903 15.3633C15.1302 15.3633 14.793 15.5035 14.5434 15.7555L12.9213 17.3756C12.4027 17.8994 12.4037 18.7486 12.9234 19.2688L13.1351 19.4805C12.9437 19.8559 12.7823 20.2449 12.6523 20.6444H12.3542C11.6161 20.6444 11.0156 21.2461 11.0156 21.9859V24.2747C11.0156 25.0145 11.6162 25.6163 12.3542 25.6163H12.6522C12.7823 26.0173 12.9437 26.4064 13.1348 26.7806L12.9213 26.9941C12.4027 27.5179 12.4037 28.3672 12.9234 28.8873L14.5429 30.5073C15.0629 31.0275 15.912 31.0285 16.4378 30.5074ZM13.8501 27.9188L14.4098 27.359C14.6218 27.1469 14.6628 26.8178 14.5094 26.5602C14.1835 26.0131 13.9378 25.4205 13.779 24.7988C13.7049 24.5086 13.4436 24.3056 13.1442 24.3056H12.3543C12.341 24.3056 12.3261 24.2929 12.3261 24.2748V21.986C12.3261 21.9695 12.3417 21.9553 12.3543 21.9553H13.1442C13.4437 21.9553 13.705 21.7522 13.779 21.462C13.9368 20.8444 14.1826 20.2514 14.51 19.6996C14.6628 19.442 14.6216 19.1136 14.4099 18.9017L13.8502 18.342C13.8411 18.3329 13.8406 18.3099 13.8498 18.3006L15.4718 16.6806C15.4804 16.6718 15.4974 16.6688 15.5123 16.6837L16.0719 17.2411C16.2842 17.4524 16.6126 17.493 16.8696 17.3397C17.4166 17.0136 18.009 16.7678 18.6304 16.6091C18.9204 16.535 19.1234 16.2736 19.1234 15.9741V15.184C19.1234 15.17 19.1389 15.1557 19.1541 15.1557H21.4422C21.4574 15.1557 21.473 15.17 21.473 15.184V15.9741C21.473 16.2736 21.6759 16.535 21.966 16.6091C22.5833 16.7668 23.1761 17.0128 23.7278 17.3403C23.9849 17.4929 24.3126 17.452 24.5245 17.2411L25.0873 16.6806C25.0892 16.6786 25.0937 16.674 25.105 16.674H25.1051C25.1181 16.674 25.1245 16.6803 25.1272 16.683L26.7441 18.2979C26.7559 18.3099 26.7553 18.3328 26.7462 18.3418L26.1866 18.9017C25.9748 19.1135 25.9336 19.4419 26.0865 19.6996C26.4138 20.2514 26.6597 20.8442 26.8174 21.4619C26.8915 21.7521 27.1528 21.9552 27.4522 21.9552H28.2421C28.2549 21.9552 28.2704 21.9694 28.2704 21.9859V24.2747C28.2704 24.2929 28.2555 24.3055 28.2421 24.3055H27.4522C27.1528 24.3055 26.8914 24.5085 26.8174 24.7988C26.6587 25.4204 26.4129 26.013 26.0871 26.5601C25.9336 26.8178 25.9746 27.1468 26.1867 27.3589L26.7441 27.9165C26.7559 27.9285 26.7553 27.9514 26.7462 27.9604L25.129 29.5782C25.1169 29.5903 25.0943 29.5894 25.0852 29.5804L24.5256 29.0205C24.3137 28.8087 23.9854 28.7674 23.7279 28.9204C23.1762 29.2478 22.5834 29.4938 21.9662 29.6516C21.676 29.7257 21.4731 29.9871 21.4731 30.2866V31.0768C21.4731 31.0915 21.457 31.1076 21.4423 31.1076H19.1542C19.1395 31.1076 19.1235 31.0915 19.1235 31.0768V30.2866C19.1235 29.9871 18.9205 29.7256 18.6304 29.6516C18.0091 29.4929 17.4167 29.247 16.8697 28.921C16.7655 28.8588 16.6497 28.8286 16.5345 28.8286C16.3651 28.8286 16.1973 28.8942 16.071 29.0206L15.5136 29.5783C15.5014 29.5904 15.4789 29.5895 15.4698 29.5804L13.8501 27.9606C13.8411 27.9515 13.8405 27.9286 13.8501 27.9188Z" fill="#70D1AC"/>
<path d="M16.695 24.1216L18.8766 26.0736C18.9971 26.1814 19.1528 26.2405 19.3134 26.2405C19.3286 26.2405 19.3438 26.24 19.359 26.239C19.5355 26.2266 19.6996 26.1433 19.8139 26.0081L23.9591 21.101C24.1927 20.8245 24.158 20.4111 23.8815 20.1774C23.6052 19.9438 23.1917 19.9785 22.9582 20.255L19.2478 24.6472L17.5686 23.1446C17.2989 22.9033 16.8846 22.9265 16.6434 23.1962C16.4022 23.466 16.4252 23.8803 16.695 24.1216Z" fill="#FCFCFC"/>
<path d="M11.4675 34.9047C7.73724 32.0888 5.59869 27.799 5.59869 23.1306C5.59869 15.9597 10.7751 9.84583 17.7567 8.61324V10.2151C17.7567 10.2191 17.7567 10.2232 17.7567 10.2273C17.7693 10.9014 18.0977 11.4733 18.6353 11.7574C19.1601 12.0348 19.7858 11.9954 20.3089 11.6525C20.3185 11.6461 20.328 11.6396 20.3373 11.6327L25.642 7.73748C26.1793 7.40329 26.4866 6.89859 26.4866 6.34837C26.4865 5.79797 26.179 5.29319 25.6414 4.959L20.337 1.06626C20.3277 1.05944 20.3183 1.05297 20.3087 1.04659C19.7859 0.703577 19.1601 0.664425 18.6351 0.94181C18.0976 1.22584 17.7692 1.79782 17.7567 2.47188C17.7566 2.4759 17.7566 2.48001 17.7566 2.48403V3.71374C13.7548 4.23993 10.0759 5.96069 7.08514 8.71199C6.81876 8.95704 6.80146 9.37163 7.04644 9.63809C7.29141 9.90447 7.7057 9.92186 7.97226 9.67681C10.8993 6.98415 14.5321 5.34929 18.4779 4.94921C18.8125 4.9153 19.0671 4.63346 19.0671 4.29717V2.49093C19.0718 2.30094 19.1373 2.15902 19.2472 2.10081C19.3423 2.05056 19.4625 2.06332 19.5788 2.13542L24.8888 6.03218C24.9048 6.04389 24.9212 6.05481 24.9381 6.06504C25.085 6.15348 25.1761 6.26194 25.1761 6.34828C25.1761 6.43454 25.0848 6.54308 24.9381 6.63152C24.9209 6.64192 24.9042 6.65302 24.8881 6.6649L19.5787 10.5637C19.4623 10.6358 19.3423 10.6484 19.2473 10.5982C19.1372 10.5401 19.0717 10.3981 19.0671 10.2081V7.85187C19.0671 7.66389 18.9863 7.485 18.8455 7.36055C18.7047 7.23619 18.5174 7.17799 18.3306 7.20158C10.3252 8.20188 4.28829 15.0499 4.28829 23.1305C4.28829 25.6973 4.876 28.15 6.03517 30.4205C7.14018 32.5848 8.75348 34.5031 10.7008 35.9679C10.7156 35.979 10.7308 35.9895 10.7463 35.9992C11.3265 36.3634 11.6411 36.8575 11.6091 37.3544C11.5861 37.7125 11.3779 38.0245 11.0657 38.1685C10.6204 38.3739 10.015 38.2298 9.40445 37.7727C4.94022 34.4327 2.27092 29.3296 2.07994 23.7707V22.49C2.21168 18.6299 3.5331 14.9778 5.90168 11.9273C6.12368 11.6414 6.07196 11.2297 5.78618 11.0076C5.50049 10.7856 5.08874 10.8372 4.86683 11.1232C2.32561 14.3961 0.90888 18.3152 0.769881 22.457C0.769619 22.4642 0.769531 22.4716 0.769531 22.4789V23.7818C0.769531 23.7892 0.769619 23.7966 0.769881 23.8039C0.97126 29.7668 3.83233 35.2408 8.61955 38.8224C9.28039 39.3169 9.97722 39.5712 10.6312 39.5712C10.9747 39.5712 11.3063 39.5011 11.6146 39.3587C12.3642 39.013 12.8631 38.2771 12.9169 37.4383C12.98 36.4545 12.4521 35.5324 11.4675 34.9047Z" fill="#FCFCFC"/>
<path d="M37.8577 14.3866C36.5588 11.7871 34.6578 9.46707 32.3594 7.67631C31.4419 6.91171 30.397 6.67269 29.4913 7.02086C28.704 7.3235 28.1418 8.03243 28.024 8.87097C27.8952 9.78894 28.3069 10.6818 29.1561 11.3222C32.9154 14.1346 35.0715 18.4386 35.0715 23.1308C35.0715 30.304 29.895 36.418 22.9135 37.6485V36.0463C22.9135 36.0423 22.9135 36.0382 22.9134 36.0341C22.9009 35.3622 22.5732 34.7912 22.0368 34.5069C21.5122 34.2289 20.8865 34.2667 20.3627 34.608C20.3526 34.6146 20.3427 34.6215 20.3329 34.6286L15.0283 38.5239C14.491 38.8581 14.1836 39.3628 14.1836 39.9131C14.1837 40.4633 14.491 40.9679 15.0283 41.3021L20.3329 45.1974C20.3426 45.2045 20.3526 45.2114 20.3627 45.2181C20.6538 45.4079 20.9765 45.5038 21.2959 45.5038C21.5509 45.5038 21.8038 45.4426 22.0368 45.3191C22.5732 45.0347 22.901 44.4639 22.9134 43.7919C22.9135 43.7879 22.9135 43.7838 22.9135 43.7798V42.5476C26.7703 42.0407 30.3442 40.4146 33.2825 37.8235C33.5539 37.5841 33.58 37.17 33.3407 36.8984C33.1015 36.6269 32.6875 36.6008 32.4159 36.8402C29.5353 39.3806 26 40.9269 22.1924 41.312C21.8577 41.3458 21.6031 41.6276 21.6031 41.964V43.7726C21.5984 43.9613 21.533 44.1027 21.4232 44.1609C21.3277 44.2115 21.2071 44.1993 21.0908 44.1278L15.782 40.2295C15.7659 40.2176 15.7492 40.2065 15.7321 40.1962C15.5852 40.1078 15.4941 39.9993 15.4941 39.913C15.4941 39.8267 15.5854 39.7182 15.7321 39.6297C15.7493 39.6193 15.7661 39.6082 15.7821 39.5964L21.0907 35.6982C21.2072 35.6266 21.3278 35.6146 21.4232 35.6651C21.5331 35.7233 21.5985 35.8648 21.6031 36.0534V38.4094C21.6031 38.5974 21.6837 38.7762 21.8245 38.9006C21.9654 39.025 22.1523 39.083 22.3393 39.0598C30.3449 38.062 36.3818 31.214 36.3818 23.1307C36.3818 20.558 35.7917 18.1002 34.6275 15.8256C33.5171 13.6557 31.8964 11.7354 29.9429 10.274C29.4806 9.92536 29.2599 9.4918 29.3215 9.05327C29.3732 8.68613 29.6182 8.37615 29.9612 8.24427C30.419 8.06835 30.9752 8.22609 31.5272 8.68884C31.5332 8.69391 31.5394 8.69889 31.5456 8.7037C36.0305 12.1939 38.6027 17.4523 38.6027 23.1307C38.6027 27.3553 37.129 31.4741 34.4531 34.7281C34.2231 35.0077 34.2633 35.4207 34.5428 35.6507C34.8223 35.8806 35.2352 35.8405 35.465 35.5609C38.3334 32.0728 39.9131 27.6583 39.9131 23.1307C39.9132 20.0579 39.2216 17.1159 37.8577 14.3866Z" fill="#FCFCFC"/>
</svg>
