<svg width="52" height="52" viewBox="0 0 52 52" fill="none" xmlns="http://www.w3.org/2000/svg">
<g clip-path="url(#clip0_443_12020)">
<path d="M26.4713 3.96573C26.887 3.96573 27.2238 3.6289 27.2238 3.21319V0.882914C27.2238 0.467209 26.887 0.130371 26.4713 0.130371C26.0557 0.130371 25.7188 0.467209 25.7188 0.882914V3.21319C25.7188 3.62879 26.0557 3.96573 26.4713 3.96573Z" fill="#70D1AC"/>
<path d="M39.1198 9.41914C39.3123 9.41914 39.505 9.34569 39.652 9.19869L41.2997 7.55092C41.5936 7.25703 41.5936 6.78052 41.2996 6.48673C41.0058 6.19293 40.5293 6.19283 40.2354 6.48683L38.5876 8.1345C38.2937 8.42839 38.2937 8.9049 38.5877 9.19869C38.7346 9.34569 38.9272 9.41914 39.1198 9.41914Z" fill="#70D1AC"/>
<path d="M44.2057 22.219H46.5359C46.9516 22.219 47.2885 21.8821 47.2885 21.4664C47.2885 21.0507 46.9516 20.7139 46.5359 20.7139H44.2057C43.79 20.7139 43.4531 21.0507 43.4531 21.4664C43.4531 21.8821 43.79 22.219 44.2057 22.219Z" fill="#70D1AC"/>
<path d="M12.7704 33.2161L11.1228 34.8639C10.8289 35.1579 10.8289 35.6343 11.1228 35.9282C11.2697 36.0751 11.4623 36.1485 11.6549 36.1485C11.8474 36.1485 12.0401 36.0751 12.187 35.9282L13.8346 34.2804C14.1285 33.9864 14.1285 33.51 13.8346 33.2161C13.5408 32.9224 13.0643 32.9224 12.7704 33.2161Z" fill="#70D1AC"/>
<path d="M8.21563 20.1962H5.88536C5.46975 20.1962 5.13281 20.533 5.13281 20.9487C5.13281 21.3644 5.46975 21.7013 5.88536 21.7013H8.21553C8.63114 21.7013 8.96807 21.3644 8.96807 20.9487C8.96807 20.533 8.63124 20.1962 8.21563 20.1962Z" fill="#70D1AC"/>
<path d="M35.1742 24.4308C35.9276 24.4308 36.5403 23.8181 36.5403 23.0647V20.6882C36.5403 19.9348 35.9276 19.3221 35.1742 19.3221H33.3468C33.2638 19.09 33.1684 18.8601 33.0624 18.6361L34.3549 17.3436C34.8873 16.811 34.8873 15.9444 34.3547 15.4116L32.6745 13.7315C32.4165 13.4733 32.0733 13.3311 31.7083 13.3311C31.3434 13.3311 31.0002 13.4733 30.7424 13.7313L29.4499 15.0236C29.2268 14.918 28.9969 14.8227 28.764 14.7392V12.9118C28.764 12.1585 28.1512 11.5458 27.3979 11.5458H25.0213C24.2681 11.5458 23.6552 12.1585 23.6552 12.9118V14.7392C23.4225 14.8226 23.1925 14.918 22.9693 15.0237L21.6769 13.7314C21.4188 13.4733 21.0758 13.3311 20.7108 13.3311C20.3459 13.3311 20.0028 13.4733 19.7449 13.7313L18.0643 15.4118C17.5319 15.9444 17.5319 16.811 18.0644 17.3438L19.3568 18.6361C19.2508 18.8598 19.1555 19.0898 19.0723 19.3221H17.245C16.4918 19.3221 15.8789 19.9348 15.8789 20.6882V23.0647C15.8789 23.8181 16.4918 24.4308 17.245 24.4308H19.0723C19.1555 24.663 19.2509 24.893 19.3568 25.1167L18.0644 26.4091C17.5317 26.9418 17.5317 27.8084 18.0644 28.3411L19.7449 30.0215C20.0029 30.2796 20.346 30.4217 20.7108 30.4217C21.0758 30.4217 21.4188 30.2796 21.6768 30.0216L22.9692 28.7291C23.1924 28.8349 23.4224 28.9303 23.6551 29.0137V30.8411C23.6551 31.5943 24.2679 32.2071 25.0212 32.2071H27.3978C28.1511 32.2071 28.7639 31.5943 28.7639 30.8411V29.0137C28.9967 28.9302 29.2268 28.8349 29.4498 28.7292L30.7421 30.0214C31.0001 30.2796 31.3433 30.4217 31.7082 30.4217C32.0732 30.4217 32.4164 30.2796 32.6743 30.0216L34.3547 28.3411C34.8873 27.8084 34.8873 26.9418 34.3547 26.4091L33.0623 25.1167C33.1683 24.8929 33.2637 24.6629 33.3467 24.4308H35.1742ZM31.9561 23.8488C31.8752 24.0845 31.7783 24.3182 31.6682 24.5434C31.411 25.0682 31.5155 25.6982 31.928 26.1109L33.1923 27.3752L31.7084 28.859L30.4442 27.5949C30.0317 27.1821 29.4016 27.0777 28.8765 27.3348C28.6525 27.4446 28.4187 27.5416 28.1822 27.6228C27.6299 27.8123 27.259 28.3314 27.259 28.9146V30.7019H25.1604V28.9146C25.1604 28.3313 24.7894 27.8124 24.2376 27.6229C24.001 27.5416 23.7672 27.4448 23.5427 27.3348C23.0178 27.0775 22.3879 27.182 21.9752 27.5947L20.7109 28.8591L19.2269 27.3752L20.4913 26.1108C20.9039 25.6981 21.0083 25.0681 20.7513 24.5435C20.641 24.3183 20.5441 24.0847 20.463 23.8486C20.2735 23.2966 19.7544 22.9257 19.1713 22.9257H17.3839V20.8271H19.1713C19.7544 20.8271 20.2735 20.4563 20.463 19.9042C20.544 19.6683 20.6409 19.4345 20.7512 19.2095C21.0083 18.6848 20.9039 18.0548 20.4912 17.642L19.2268 16.3777L20.7108 14.8938L21.9751 16.1582C22.3877 16.5707 23.0175 16.6752 23.5427 16.4181C23.7671 16.3082 24.0009 16.2111 24.2376 16.1299C24.7894 15.9403 25.1603 15.4213 25.1603 14.8383V13.051H27.2589V14.8383C27.2589 15.4214 27.6297 15.9403 28.1817 16.1299C28.4186 16.2113 28.6523 16.3083 28.8766 16.4181C29.4017 16.6753 30.0317 16.5708 30.4439 16.1582L31.7083 14.8939L33.1923 16.3777L31.9279 17.642C31.5154 18.0547 31.4109 18.6847 31.6679 19.2093C31.7782 19.4346 31.8751 19.6684 31.9561 19.9044C32.1457 20.4564 32.6647 20.8271 33.2477 20.8271H35.0351V22.9257H33.2477C32.6647 22.9257 32.1457 23.2965 31.9561 23.8488Z" fill="#70D1AC"/>
<path d="M26.2108 17.6227C23.8653 17.6227 21.957 19.5309 21.957 21.8764C21.957 24.2219 23.8653 26.1301 26.2108 26.1301C28.5563 26.1301 30.4646 24.2219 30.4646 21.8764C30.4646 19.5309 28.5563 17.6227 26.2108 17.6227ZM26.2108 24.6249C24.6952 24.6249 23.4621 23.3919 23.4621 21.8763C23.4621 20.3606 24.6952 19.1277 26.2108 19.1277C27.7263 19.1277 28.9595 20.3606 28.9595 21.8763C28.9595 23.3919 27.7263 24.6249 26.2108 24.6249Z" fill="#FCFCFC"/>
<path d="M45.6972 37.045H45.1444C45.3986 36.3427 45.5302 35.5975 45.5302 34.8421C45.5302 31.2766 42.6295 28.3759 39.064 28.3759C38.9944 28.3759 38.9251 28.3773 38.8559 28.3796C39.6913 26.8816 40.2607 25.2382 40.5208 23.5219C40.5831 23.1109 40.3004 22.7273 39.8895 22.6651C39.4787 22.6031 39.095 22.8854 39.0327 23.2963C38.7323 25.2784 37.9723 27.153 36.8323 28.7785C35.3509 29.3282 34.0937 30.4095 33.3428 31.8292C32.8002 31.6311 32.2239 31.5282 31.6427 31.5282C29.1308 31.5282 27.0508 33.4073 26.7311 35.8333H20.7884L20.6495 35.4415C20.0544 33.7627 19.0567 32.2883 17.7644 31.178C14.8517 28.6758 13.2035 25.04 13.2423 21.2027C13.2765 17.8156 14.6234 14.6169 17.0348 12.196C19.4463 9.77489 22.6394 8.4156 26.0262 8.36844C29.2952 8.32499 32.4269 9.49485 34.8557 11.6679C37.2656 13.824 38.7765 16.7743 39.1102 19.9752C39.1534 20.3886 39.5229 20.6883 39.9368 20.6457C40.3501 20.6026 40.6502 20.2325 40.6073 19.8191C40.2346 16.2456 38.5484 12.9523 35.8593 10.5464C33.1483 8.1208 29.65 6.80987 26.0052 6.86366C25.9049 6.86506 25.8047 6.86797 25.7047 6.87148C25.1086 3.9179 22.4965 1.68616 19.3697 1.68616C16.9642 1.68616 14.7559 3.04565 13.6486 5.13953C13.1059 4.94136 12.5297 4.83851 11.9484 4.83851C9.21588 4.83851 6.99267 7.06162 6.99267 9.79426C6.99267 9.98219 7.0033 10.1694 7.02447 10.3553H6.8258C4.81741 10.3553 3.18359 11.9892 3.18359 13.9976C3.18359 16.006 4.81731 17.6396 6.8256 17.6396H7.89933C8.31494 17.6396 8.65187 17.3027 8.65187 16.887C8.65187 16.4713 8.31494 16.1345 7.89933 16.1345H6.8256C5.64722 16.1345 4.68848 15.1757 4.68848 13.9974C4.68848 12.8189 5.64722 11.8601 6.8256 11.8601H7.95552C8.19684 11.8601 8.4236 11.7445 8.56508 11.5488C8.70666 11.3533 8.74579 11.1018 8.67044 10.8725C8.55575 10.5236 8.49755 10.1608 8.49755 9.79406C8.49755 7.89133 10.0455 6.3434 11.9482 6.3434C12.5444 6.3434 13.1329 6.49882 13.65 6.79272C13.8413 6.90168 14.0706 6.92115 14.2776 6.8463C14.4846 6.77144 14.6484 6.6099 14.7261 6.4039C15.4501 4.48221 17.3162 3.19104 19.3695 3.19104C21.7093 3.19104 23.674 4.81985 24.1939 7.00272C21.0955 7.43699 18.2244 8.86853 15.9683 11.1337C14.5239 12.5838 13.4224 14.2847 12.7056 16.1344H11.4112C10.9956 16.1344 10.6587 16.4712 10.6587 16.8869C10.6587 17.3026 10.9956 17.6395 11.4112 17.6395H12.2164C11.9127 18.786 11.7494 19.9757 11.7372 21.1873C11.6939 25.4697 13.5332 29.5272 16.7836 32.3196C17.8771 33.259 18.7234 34.5124 19.2309 35.9442L19.262 36.0321C18.7737 36.3032 18.4421 36.8239 18.4421 37.421V40.896C18.4421 41.7487 19.1182 42.4446 19.9623 42.4803V44.0702C19.9623 45.7625 21.1121 47.1905 22.6713 47.6164V49.1432C22.6713 50.4449 23.7302 51.5039 25.0319 51.5039H27.3905C28.6923 51.5039 29.7513 50.4448 29.7513 49.1432V47.6164C31.2301 47.2125 32.3395 45.9068 32.45 44.3294H38.9041C39.3198 44.3294 39.6567 43.9925 39.6567 43.5768C39.6567 43.1611 39.3198 42.8243 38.9041 42.8243H26.5201C25.3416 42.8243 24.3828 41.8655 24.3828 40.6872C24.3828 39.5088 25.3416 38.55 26.5201 38.55H27.65C27.8913 38.55 28.1181 38.4344 28.2595 38.2387C28.401 38.0432 28.4403 37.7917 28.3649 37.5624C28.2501 37.2135 28.192 36.8507 28.192 36.4839C28.192 34.5811 29.7399 33.0332 31.6427 33.0332C32.2389 33.0332 32.8274 33.1886 33.3443 33.4825C33.5356 33.5915 33.7648 33.611 33.972 33.5361C34.179 33.4613 34.3429 33.2997 34.4206 33.0937C35.1446 31.172 37.0106 29.8808 39.064 29.8808C41.7996 29.8808 44.0251 32.1065 44.0251 34.842C44.0251 35.7489 43.7782 36.6361 43.311 37.4076C43.1703 37.64 43.1658 37.9301 43.2992 38.1667C43.4325 38.4034 43.6832 38.5498 43.9548 38.5498H45.6972C46.8756 38.5498 47.8343 39.5086 47.8343 40.687C47.8343 41.8653 46.8756 42.8241 45.6972 42.8241H42.416C42.0003 42.8241 41.6634 43.1609 41.6634 43.5766C41.6634 43.9923 42.0003 44.3292 42.416 44.3292H45.6972C47.7056 44.3292 49.3394 42.6954 49.3394 40.687C49.3394 38.6786 47.7056 37.045 45.6972 37.045ZM28.2462 49.1433C28.2462 49.6151 27.8623 49.9989 27.3905 49.9989H25.0319C24.5601 49.9989 24.1763 49.6151 24.1763 49.1433V47.7465H28.2463L28.2462 49.1433ZM26.5201 44.3294H30.9391C30.8106 45.4047 29.8934 46.2414 28.784 46.2414H23.6384C22.4413 46.2414 21.4674 45.2674 21.4674 44.0703V42.4838H23.3538C23.981 43.5849 25.1649 44.3294 26.5201 44.3294ZM22.8778 40.6872C22.8778 40.7854 22.8828 40.8824 22.8905 40.9787H20.0298C19.9842 40.9787 19.947 40.9416 19.947 40.8961V37.4211C19.947 37.3755 19.9842 37.3383 20.0298 37.3383H25.0889C23.79 37.8955 22.8778 39.1867 22.8778 40.6872Z" fill="#FCFCFC"/>
</g>
<defs>
<clipPath id="clip0_443_12020">
<rect width="51.3736" height="51.3736" fill="white" transform="translate(0.574219 0.130127)"/>
</clipPath>
</defs>
</svg>
