<svg width="47" height="47" viewBox="0 0 47 47" fill="none" xmlns="http://www.w3.org/2000/svg">
<path d="M45.2861 19.0368H42.5128C42.4677 19.0368 42.4282 19.0073 42.4185 18.9665C41.9462 16.9569 41.1629 15.0421 40.0905 13.2753C40.0667 13.2362 40.0714 13.1873 40.1017 13.1567L42.0681 11.164C42.3409 10.8875 42.4911 10.52 42.4911 10.1291C42.4911 9.73805 42.3409 9.37046 42.0681 9.09408L37.8544 4.82417C37.5817 4.54761 37.2189 4.39538 36.8331 4.39538C36.4473 4.39538 36.0847 4.54761 35.8118 4.82408L33.8454 6.81673C33.8151 6.84747 33.7668 6.85223 33.7283 6.82807C31.9849 5.74131 30.0953 4.94759 28.1123 4.46893C28.0721 4.45924 28.0429 4.41907 28.0429 4.37351V1.56317C28.0429 0.75608 27.395 0.0994873 26.5986 0.0994873H20.6396C19.8432 0.0994873 19.1952 0.75608 19.1952 1.56317V4.37351C19.1952 4.41916 19.166 4.45924 19.1258 4.46893C17.1427 4.94768 15.2532 5.74131 13.5097 6.82807C13.4712 6.85232 13.4228 6.84756 13.3926 6.81673L11.4263 4.82408C11.1534 4.54761 10.7907 4.39538 10.405 4.39538C10.0191 4.39538 9.65637 4.54761 9.38364 4.82408L5.17025 9.09417C4.89734 9.37055 4.74711 9.73814 4.74711 10.1291C4.74711 10.5201 4.89734 10.8876 5.17016 11.1641L7.13651 13.1568C7.16685 13.1874 7.17154 13.2363 7.14771 13.2754C6.07529 15.0422 5.29203 16.957 4.8197 18.9666C4.81013 19.0073 4.77049 19.0369 4.72545 19.0369H1.95218C1.15574 19.0368 0.507812 19.6934 0.507812 20.5005V26.5392C0.507812 27.3462 1.15574 28.0029 1.95218 28.0029H4.72545C4.77049 28.0029 4.81004 28.0324 4.8197 28.0732C5.29203 30.0828 6.07529 31.9976 7.14771 33.7644C7.17154 33.8035 7.16685 33.8524 7.13651 33.883L5.17016 35.8758C4.89734 36.1522 4.74711 36.5198 4.74711 36.9107C4.74711 37.3018 4.89734 37.6693 5.17016 37.9457L9.38382 42.2156C9.65655 42.4921 10.0193 42.6444 10.4051 42.6444C10.7909 42.6444 11.1535 42.4922 11.4265 42.2157L13.3928 40.2231C13.423 40.1922 13.4714 40.1874 13.5099 40.2117C15.2533 41.2984 17.1428 42.0922 19.1261 42.571C19.1662 42.5807 19.1954 42.6208 19.1954 42.6664V45.4767C19.1954 46.2837 19.8433 46.9404 20.6397 46.9404H26.5988C27.3951 46.9404 28.0431 46.2838 28.0431 45.4767V42.6664C28.0431 42.6208 28.0723 42.5808 28.1126 42.571C30.0957 42.0922 31.9851 41.2984 33.7286 40.2117C33.7671 40.1875 33.8154 40.1922 33.8457 40.2231L35.812 42.2157C36.085 42.4921 36.4476 42.6444 36.8334 42.6444C37.2192 42.6444 37.582 42.4922 37.8546 42.2157L38.8486 41.2085C39.1125 40.9411 39.1125 40.5076 38.8487 40.2403C38.5848 39.973 38.1569 39.9729 37.8932 40.2402L36.8991 41.2475C36.8766 41.2703 36.8509 41.2752 36.8333 41.2752C36.8157 41.2752 36.79 41.2703 36.7675 41.2474L34.8011 39.2548C34.3264 38.7739 33.5942 38.6878 33.0205 39.0454C31.3995 40.0559 29.6428 40.7939 27.7995 41.239C27.1474 41.3963 26.6918 41.9833 26.6918 42.6664V45.4767C26.6918 45.5288 26.65 45.5711 26.5987 45.5711H20.6397C20.5883 45.5711 20.5465 45.5288 20.5465 45.4767V42.6664C20.5465 41.9833 20.091 41.3963 19.439 41.239C17.5956 40.7939 15.8388 40.0559 14.2178 39.0454C13.644 38.6879 12.9119 38.7739 12.4372 39.2548L10.4709 41.2474C10.4484 41.2703 10.4227 41.2752 10.405 41.2752C10.3874 41.2752 10.3618 41.2703 10.3392 41.2474L6.12549 36.9774C6.10301 36.9547 6.09822 36.9286 6.09822 36.9107C6.09822 36.8929 6.10301 36.8669 6.12558 36.8441L8.09193 34.8514C8.56644 34.3705 8.65139 33.6285 8.29858 33.047C7.30127 31.4042 6.57309 29.624 6.13397 27.756C5.9786 27.0953 5.39937 26.6337 4.72536 26.6337H1.95218C1.90081 26.6337 1.85901 26.5914 1.85901 26.5393V20.5006C1.85901 20.4485 1.90081 20.4062 1.95218 20.4062H4.72545C5.39947 20.4062 5.97869 19.9447 6.13406 19.2839C6.57318 17.4159 7.30136 15.6357 8.29867 13.9929C8.65148 13.4114 8.56653 12.6694 8.09202 12.1885L6.12567 10.1958C6.1031 10.1731 6.09831 10.147 6.09831 10.1291C6.09831 10.1113 6.1031 10.0853 6.12567 10.0625L10.3393 5.79236C10.3618 5.76958 10.3875 5.76474 10.4051 5.76474C10.4227 5.76474 10.4484 5.76958 10.471 5.79246L12.4373 7.7851C12.912 8.26586 13.6441 8.35204 14.2179 7.99451C15.839 6.98387 17.5957 6.24595 19.4391 5.80096C20.0911 5.64352 20.5466 5.05655 20.5466 4.37351V1.56317C20.5466 1.51111 20.5884 1.46875 20.6397 1.46875H26.5988C26.6501 1.46875 26.6919 1.51111 26.6919 1.56317V4.37351C26.6919 5.05655 27.1473 5.64352 27.7994 5.80096C29.6428 6.24595 31.3995 6.98387 33.0206 7.99451C33.5944 8.35195 34.3265 8.26604 34.8012 7.7851L36.7676 5.79246C36.79 5.76958 36.8158 5.76474 36.8334 5.76474C36.851 5.76474 36.8766 5.76958 36.8992 5.79246L41.1129 10.0625C41.1354 10.0852 41.1402 10.1113 41.1402 10.1291C41.1402 10.147 41.1354 10.173 41.1128 10.1958L39.1465 12.1885C38.672 12.6694 38.587 13.4114 38.9398 13.9929C39.9371 15.6357 40.6653 17.4159 41.1045 19.2839C41.2598 19.9446 41.839 20.4062 42.5131 20.4062H45.2863C45.3377 20.4062 45.3795 20.4485 45.3795 20.5006V26.5393C45.3795 26.5914 45.3377 26.6337 45.2863 26.6337H42.5131C41.839 26.6337 41.2598 27.0952 41.1045 27.756C40.6653 29.624 39.9371 31.4042 38.9398 33.047C38.587 33.6285 38.672 34.3705 39.1465 34.8514L41.1128 36.8441C41.1354 36.8668 41.1402 36.8929 41.1402 36.9107C41.1402 36.9286 41.1354 36.9546 41.1128 36.9774L40.1075 37.9962C39.8437 38.2636 39.8437 38.6971 40.1075 38.9645C40.3713 39.2316 40.799 39.2318 41.063 38.9645L42.0683 37.9457C42.3412 37.6693 42.4914 37.3018 42.4914 36.9107C42.4914 36.5198 42.3412 36.1523 42.0684 35.8758L40.102 33.883C40.0717 33.8524 40.067 33.8035 40.0908 33.7644C41.1632 31.9976 41.9465 30.0828 42.4188 28.0732C42.4284 28.0325 42.468 28.0029 42.5131 28.0029H45.2863C46.0827 28.0029 46.7307 27.3463 46.7307 26.5392V20.5005C46.7304 19.6934 46.0825 19.0368 45.2861 19.0368Z" fill="#FCFCFC"/>
<path d="M10.0525 20.7783C9.6834 20.7221 9.33998 20.9814 9.28536 21.3554C9.18145 22.0672 9.12891 22.7954 9.12891 23.52C9.12891 31.6153 15.628 38.2013 23.6165 38.2013C31.6049 38.2013 38.104 31.6153 38.104 23.52C38.104 15.4247 31.6049 8.83875 23.6165 8.83875C20.6591 8.83875 17.8146 9.73595 15.3904 11.4334C13.0227 13.0912 11.2109 15.3943 10.15 18.0958L10.1227 18.1661C9.98574 18.5177 10.156 18.9154 10.5031 19.0542C10.8501 19.1929 11.2426 19.0205 11.3796 18.6687L11.4062 18.6004C12.3675 16.1524 14.0108 14.0637 16.1584 12.5599C18.3558 11.0212 20.9347 10.208 23.6165 10.208C30.8599 10.208 36.7528 16.1797 36.7528 23.52C36.7528 30.8603 30.8599 36.832 23.6165 36.832C16.373 36.832 10.4801 30.8603 10.4801 23.52C10.4801 22.8622 10.5279 22.2013 10.622 21.5555C10.6766 21.1815 10.4216 20.8335 10.0525 20.7783Z" fill="#70D1AC"/>
<path d="M21.698 30.6274C21.7259 30.6274 21.7537 30.627 21.7813 30.6262C22.561 30.6035 23.3113 30.2576 23.84 29.6772L31.408 21.3705C31.9363 20.7907 32.2102 20.0372 32.1792 19.2488C32.1482 18.4604 31.8161 17.7314 31.2439 17.1961C30.063 16.0911 28.2149 16.1658 27.1245 17.3626L21.5794 23.4486L19.9944 21.8961C18.8385 20.7641 16.9893 20.7962 15.8723 21.9674C14.7553 23.1386 14.7868 25.0123 15.9425 26.1445L19.6722 29.7974C20.2187 30.3326 20.9381 30.6274 21.698 30.6274ZM16.8438 22.9189C17.1502 22.5977 17.5592 22.4362 17.9686 22.4362C18.3602 22.4362 18.7523 22.5839 19.0554 22.8806L21.1375 24.9198C21.2682 25.0478 21.4454 25.1165 21.6262 25.112C21.808 25.1067 21.98 25.0274 22.1034 24.892L28.1173 18.2913C28.7024 17.6492 29.6938 17.6094 30.3273 18.202C30.6342 18.4891 30.8124 18.8802 30.829 19.3033C30.8456 19.7264 30.6987 20.1306 30.4153 20.4416L22.8469 28.7485C22.5635 29.0598 22.1608 29.2454 21.7423 29.2575C21.3192 29.2698 20.9149 29.1104 20.611 28.8129L16.8814 25.16C16.2615 24.5525 16.2446 23.5472 16.8438 22.9189Z" fill="#FCFCFC"/>
</svg>
